<svg width="42" height="42" viewBox="0 0 42 42" fill="none" xmlns="http://www.w3.org/2000/svg">
<g id="radix-icons:avatar">
<path id="Vector" fill-rule="evenodd" clip-rule="evenodd" d="M2.4556 21C2.4556 16.0817 4.40938 11.3649 7.88713 7.88716C11.3649 4.40941 16.0817 2.45563 21 2.45563C25.9183 2.45563 30.6351 4.40941 34.1129 7.88716C37.5906 11.3649 39.5444 16.0817 39.5444 21C39.5444 25.9183 37.5906 30.6351 34.1129 34.1129C30.6351 37.5906 25.9183 39.5444 21 39.5444C16.0817 39.5444 11.3649 37.5906 7.88713 34.1129C4.40938 30.6351 2.4556 25.9183 2.4556 21ZM21 5.11563C17.9212 5.11573 14.9087 6.0106 12.3291 7.69136C9.74954 9.37212 7.714 11.7663 6.47015 14.5827C5.2263 17.3991 4.82775 20.5163 5.32298 23.555C5.81821 26.5938 7.18587 29.4231 9.2596 31.6988C10.5185 29.7269 12.2542 28.1041 14.3063 26.9805C16.3583 25.8568 18.6605 25.2686 21 25.27C23.3396 25.2683 25.6418 25.8565 27.6939 26.9801C29.746 28.1038 31.4816 29.7267 32.7404 31.6988C34.8141 29.4231 36.1818 26.5938 36.677 23.555C37.1722 20.5163 36.7737 17.3991 35.5298 14.5827C34.286 11.7663 32.2505 9.37212 29.6709 7.69136C27.0913 6.0106 24.0788 5.11573 21 5.11563ZM30.7496 33.5412C29.7588 31.8336 28.3365 30.4163 26.6254 29.4315C24.9142 28.4467 22.9743 27.9289 21 27.93C19.0257 27.9289 17.0858 28.4467 15.3746 29.4315C13.6635 30.4163 12.2412 31.8336 11.2504 33.5412C14.0357 35.7131 17.468 36.89 21 36.8844C24.6736 36.8844 28.056 35.6356 30.7496 33.5412ZM14.42 18.214C14.42 16.4689 15.1132 14.7953 16.3472 13.5613C17.5812 12.3273 19.2549 11.634 21 11.634C22.7451 11.634 24.4188 12.3273 25.6528 13.5613C26.8867 14.7953 27.58 16.4689 27.58 18.214C27.58 19.9592 26.8867 21.6328 25.6528 22.8668C24.4188 24.1008 22.7451 24.794 21 24.794C19.2549 24.794 17.5812 24.1008 16.3472 22.8668C15.1132 21.6328 14.42 19.9592 14.42 18.214ZM21 14.294C20.4852 14.294 19.9755 14.3954 19.4999 14.5924C19.0243 14.7894 18.5921 15.0782 18.2281 15.4422C17.8641 15.8062 17.5754 16.2383 17.3784 16.7139C17.1814 17.1895 17.08 17.6992 17.08 18.214C17.08 18.7288 17.1814 19.2385 17.3784 19.7141C17.5754 20.1897 17.8641 20.6219 18.2281 20.9859C18.5921 21.3499 19.0243 21.6386 19.4999 21.8356C19.9755 22.0326 20.4852 22.134 21 22.134C22.0396 22.134 23.0367 21.721 23.7719 20.9859C24.507 20.2507 24.92 19.2537 24.92 18.214C24.92 17.1744 24.507 16.1773 23.7719 15.4422C23.0367 14.707 22.0396 14.294 21 14.294Z" fill="white" fill-opacity="0.9"/>
</g>
</svg>
