<svg width="25" height="25" viewBox="0 0 25 25" fill="none" xmlns="http://www.w3.org/2000/svg">
<path d="M12.5052 2.08334C14.1628 2.08334 15.7525 2.74182 16.9246 3.91393C18.0967 5.08603 18.7552 6.67574 18.7552 8.33334V9.37501H22.9218V11.4583H21.7062L20.9177 20.9198C20.896 21.1801 20.7773 21.4228 20.5851 21.5997C20.393 21.7766 20.1414 21.8749 19.8802 21.875H5.13017C4.86879 21.8751 4.61691 21.777 4.42453 21.6C4.23215 21.4231 4.11332 21.1803 4.09163 20.9198L3.30308 11.4583H2.0885V9.37501H6.25517V8.33334C6.25517 6.67574 6.91365 5.08603 8.08575 3.91393C9.25785 2.74182 10.8476 2.08334 12.5052 2.08334ZM13.5468 13.5417H11.4635V17.7083H13.5468V13.5417ZM9.38017 13.5417H7.29683V17.7083H9.38017V13.5417ZM17.7135 13.5417H15.6302V17.7083H17.7135V13.5417ZM12.5052 4.16668C11.4362 4.16668 10.4081 4.57755 9.63349 5.31431C8.85892 6.05106 8.39716 7.05734 8.34371 8.12501L8.3385 8.33334V9.37501H16.6718V8.33334C16.6718 7.26434 16.261 6.23623 15.5242 5.46166C14.7874 4.6871 13.7812 4.22534 12.7135 4.17189L12.5052 4.16668Z" fill="white"/>
</svg>
