<svg width="25" height="25" viewBox="0 0 25 25" fill="none" xmlns="http://www.w3.org/2000/svg">
<g id="mdi:comments">
<path id="Vector" d="M12.5 23.9583C12.2237 23.9583 11.9588 23.8486 11.7634 23.6532C11.5681 23.4579 11.4583 23.1929 11.4583 22.9167V19.7917H7.29166C6.73912 19.7917 6.20922 19.5722 5.81852 19.1815C5.42782 18.7908 5.20832 18.2609 5.20832 17.7083V7.29166C5.20832 6.73912 5.42782 6.20922 5.81852 5.81852C6.20922 5.42782 6.73912 5.20832 7.29166 5.20832H21.875C22.4275 5.20832 22.9574 5.42782 23.3481 5.81852C23.7388 6.20922 23.9583 6.73912 23.9583 7.29166V17.7083C23.9583 18.2609 23.7388 18.7908 23.3481 19.1815C22.9574 19.5722 22.4275 19.7917 21.875 19.7917H17.6042L13.75 23.6562C13.5417 23.8437 13.2917 23.9583 13.0208 23.9583H12.5ZM3.12499 15.625H1.04166V3.12499C1.04166 2.57246 1.26115 2.04255 1.65185 1.65185C2.04255 1.26115 2.57246 1.04166 3.12499 1.04166H19.7917V3.12499H3.12499V15.625Z" fill="white"/>
</g>
</svg>
