<svg width="35" height="35" viewBox="0 0 35 35" fill="none" xmlns="http://www.w3.org/2000/svg">
<g id="bx:edit">
<path id="Vector" d="M10.2083 24.8106L16.6439 24.7888L30.6906 10.8763C31.2419 10.325 31.5452 9.59292 31.5452 8.81417C31.5452 8.03542 31.2419 7.30334 30.6906 6.75209L28.3777 4.43917C27.2752 3.33667 25.3516 3.34251 24.2579 4.4348L10.2083 18.3502V24.8106ZM26.3156 6.50126L28.6329 8.8098L26.3039 11.1169L23.991 8.80542L26.3156 6.50126ZM13.125 19.5665L21.9187 10.8558L24.2316 13.1688L15.4394 21.8765L13.125 21.8838V19.5665Z" fill="white"/>
<path id="Vector_2" d="M7.29167 30.625H27.7083C29.3169 30.625 30.625 29.3169 30.625 27.7083V15.0675L27.7083 17.9842V27.7083H11.8971C11.8592 27.7083 11.8198 27.7229 11.7819 27.7229C11.7338 27.7229 11.6856 27.7098 11.636 27.7083H7.29167V7.29167H17.2769L20.1935 4.375H7.29167C5.68313 4.375 4.375 5.68313 4.375 7.29167V27.7083C4.375 29.3169 5.68313 30.625 7.29167 30.625Z" fill="white"/>
</g>
</svg>
