<svg width="59" height="59" viewBox="0 0 59 59" fill="none" xmlns="http://www.w3.org/2000/svg">
<g id="devicon:google" clip-path="url(#clip0_23_667)">
<path id="Vector" d="M20.5532 1.94055C14.6582 3.98558 9.57433 7.86713 6.04838 13.015C2.52242 18.163 0.740223 24.3059 0.963552 30.5416C1.18688 36.7772 3.40397 42.7769 7.28916 47.6594C11.1743 52.5419 16.5229 56.0498 22.5491 57.6679C27.4346 58.9285 32.5533 58.9839 37.465 57.8292C41.9145 56.8298 46.0282 54.6919 49.4033 51.625C52.916 48.3355 55.4657 44.1508 56.7783 39.5208C58.2045 34.4857 58.4584 29.1909 57.5204 24.0425H30.0854V35.423H45.9739C45.6564 37.2382 44.9759 38.9706 43.9732 40.5166C42.9705 42.0626 41.6663 43.3904 40.1384 44.4205C38.1985 45.7044 36.0113 46.568 33.7176 46.9557C31.4173 47.3835 29.0577 47.3835 26.7574 46.9557C24.4258 46.4742 22.2201 45.5119 20.2812 44.1302C17.166 41.925 14.8269 38.7922 13.5977 35.1787C12.348 31.4976 12.348 27.507 13.5977 23.8259C14.4726 21.2456 15.9191 18.8963 17.8291 16.9533C20.0148 14.6889 22.782 13.0703 25.827 12.2751C28.8721 11.4799 32.0774 11.5388 35.0912 12.4453C37.4456 13.1677 39.5986 14.4305 41.3784 16.1328C43.1699 14.3505 44.9583 12.5636 46.7437 10.7721C47.6656 9.80875 48.6704 8.89148 49.5784 7.90508C46.8614 5.37692 43.6723 3.40957 40.1937 2.1157C33.8591 -0.184423 26.9279 -0.246237 20.5532 1.94055Z" fill="white"/>
<path id="Vector_2" d="M20.5532 1.94053C26.9273 -0.247741 33.8586 -0.187555 40.1937 2.11107C43.6729 3.41373 46.8605 5.39055 49.5738 7.92811C48.652 8.91451 47.6794 9.83639 46.7391 10.7951C44.9506 12.5805 43.1637 14.3597 41.3784 16.1328C39.5986 14.4305 37.4456 13.1677 35.0912 12.4453C32.0784 11.5356 28.8732 11.4733 25.8273 12.2653C22.7815 13.0572 20.0126 14.6728 17.8245 16.9348C15.9145 18.8778 14.468 21.2271 13.593 23.8074L4.03781 16.4094C7.45801 9.62694 13.3799 4.43892 20.5532 1.94053Z" fill="#E33629"/>
<path id="Vector_3" d="M1.50267 23.7383C2.01588 21.1928 2.86855 18.7278 4.03783 16.4094L13.5931 23.8258C12.3434 27.507 12.3434 31.4976 13.5931 35.1787C10.4095 37.6371 7.22444 40.1077 4.03783 42.5906C1.11157 36.7658 0.219111 30.1292 1.50267 23.7383Z" fill="#F8BD00"/>
<path id="Vector_4" d="M30.0854 24.0379H57.5204C58.4584 29.1863 58.2045 34.4811 56.7783 39.5162C55.4657 44.1462 52.916 48.3309 49.4033 51.6204C46.3196 49.2143 43.2221 46.8267 40.1384 44.4206C41.6673 43.3893 42.9721 42.0601 43.9749 40.5124C44.9776 38.9648 45.6575 37.2306 45.9739 35.4138H30.0854C30.0808 31.6249 30.0854 27.8314 30.0854 24.0379Z" fill="#587DBD"/>
<path id="Vector_5" d="M4.0332 42.5906C7.21982 40.1323 10.4049 37.6617 13.5884 35.1788C14.8201 38.7934 17.1626 41.9264 20.2813 44.1302C22.2262 45.5055 24.4366 46.46 26.7713 46.9327C29.0716 47.3605 31.4311 47.3605 33.7314 46.9327C36.0252 46.545 38.2123 45.6814 40.1523 44.3975C43.2359 46.8036 46.3334 49.1913 49.4171 51.5974C46.0425 54.666 41.9288 56.8054 37.4788 57.8062C32.5671 58.9609 27.4485 58.9055 22.5629 57.6449C18.6989 56.6132 15.0896 54.7944 11.9613 52.3026C8.65054 49.6735 5.94625 46.3608 4.0332 42.5906Z" fill="#319F43"/>
</g>
<defs>
<clipPath id="clip0_23_667">
<rect width="59" height="59" fill="white"/>
</clipPath>
</defs>
</svg>
