<svg width="34" height="35" viewBox="0 0 34 35" fill="none" xmlns="http://www.w3.org/2000/svg">
<g id="mdi:hide">
<path id="Vector" d="M16.7592 13.125L21.25 17.7333V17.5C21.25 16.3397 20.8023 15.2269 20.0052 14.4064C19.2082 13.5859 18.1272 13.125 17 13.125H16.7592ZM10.6675 14.2917L12.8634 16.5521C12.7925 16.8583 12.75 17.1646 12.75 17.5C12.75 18.6603 13.1978 19.7731 13.9948 20.5936C14.7918 21.4141 15.8728 21.875 17 21.875C17.3117 21.875 17.6234 21.8313 17.9209 21.7583L20.1167 24.0187C19.1675 24.5 18.1192 24.7917 17 24.7917C15.1214 24.7917 13.3197 24.0234 11.9913 22.656C10.663 21.2885 9.91669 19.4339 9.91669 17.5C9.91669 16.3479 10.2 15.2688 10.6675 14.2917ZM2.83335 6.22708L6.06335 9.55208L6.70085 10.2083C4.36335 12.1042 2.52169 14.5833 1.41669 17.5C3.86752 23.9021 9.91669 28.4375 17 28.4375C19.1959 28.4375 21.2925 28 23.205 27.2125L23.8142 27.825L27.9509 32.0833L29.75 30.2313L4.63252 4.375M17 10.2083C18.8786 10.2083 20.6803 10.9766 22.0087 12.344C23.3371 13.7115 24.0834 15.5661 24.0834 17.5C24.0834 18.4333 23.8992 19.3375 23.5734 20.1542L27.7242 24.4271C29.8492 22.6042 31.5492 20.2125 32.5834 17.5C30.1325 11.0979 24.0834 6.5625 17 6.5625C15.0167 6.5625 13.1184 6.92708 11.3334 7.58333L14.4075 10.7188C15.215 10.3979 16.0792 10.2083 17 10.2083Z" fill="black"/>
</g>
</svg>
