<svg width="25" height="25" viewBox="0 0 25 25" fill="none" xmlns="http://www.w3.org/2000/svg">
<g id="ic:twotone-history">
<path id="Vector" d="M13.5417 3.125C11.0553 3.125 8.67068 4.11272 6.91253 5.87087C5.15438 7.62903 4.16666 10.0136 4.16666 12.5H1.04166L5.09374 16.5521L5.16666 16.6979L9.37499 12.5H6.24999C6.24999 8.46875 9.51041 5.20833 13.5417 5.20833C17.5729 5.20833 20.8333 8.46875 20.8333 12.5C20.8333 16.5312 17.5729 19.7917 13.5417 19.7917C11.5312 19.7917 9.70832 18.9688 8.39582 17.6458L6.91666 19.125C7.7848 19.9979 8.81716 20.6904 9.95422 21.1623C11.0913 21.6343 12.3105 21.8765 13.5417 21.875C16.0281 21.875 18.4126 20.8873 20.1708 19.1291C21.9289 17.371 22.9167 14.9864 22.9167 12.5C22.9167 10.0136 21.9289 7.62903 20.1708 5.87087C18.4126 4.11272 16.0281 3.125 13.5417 3.125ZM12.5 8.33333V13.5417L16.9271 16.1667L17.7292 14.8333L14.0625 12.6562V8.33333H12.5Z" fill="white"/>
</g>
</svg>
