<svg width="63" height="73" viewBox="0 0 63 73" fill="none" xmlns="http://www.w3.org/2000/svg">
<g id="ic:baseline-phone">
<path id="Vector" d="M17.3775 32.8196C21.1575 41.4275 27.2475 48.4537 34.6763 52.8642L40.4512 46.1725C41.16 45.3513 42.21 45.0775 43.1287 45.4425C46.0688 46.5679 49.245 47.1763 52.5 47.1763C53.9437 47.1763 55.125 48.545 55.125 50.2179V60.8333C55.125 62.5063 53.9437 63.875 52.5 63.875C27.8512 63.875 7.875 40.7279 7.875 12.1667C7.875 10.4937 9.05625 9.125 10.5 9.125H19.6875C21.1313 9.125 22.3125 10.4937 22.3125 12.1667C22.3125 15.9688 22.8375 19.6188 23.8087 23.0254C24.0975 24.09 23.8875 25.2763 23.1525 26.1279L17.3775 32.8196Z" fill="black"/>
</g>
</svg>
