<svg width="25" height="25" viewBox="0 0 25 25" fill="none" xmlns="http://www.w3.org/2000/svg">
<g id="mdi:sale">
<path id="Vector" d="M19.4271 2.96875L20.0625 6.98958L23.7188 8.85417L21.875 12.5L23.7292 16.1458L20.0417 18.0104L19.4063 22.0312L15.3542 21.3958L12.4688 24.2708L9.57293 21.3542L5.55209 22.0208L4.90626 17.9687L1.27084 16.1146L3.12501 12.4688L1.28126 8.85417L4.93751 6.96875L5.57293 2.97917L9.60418 3.64583L12.5 0.71875L15.3854 3.60417L19.4271 2.96875ZM9.89584 7.29167C9.48144 7.29167 9.08401 7.45629 8.79099 7.74931C8.49796 8.04234 8.33334 8.43977 8.33334 8.85417C8.33334 9.26857 8.49796 9.666 8.79099 9.95902C9.08401 10.252 9.48144 10.4167 9.89584 10.4167C10.3102 10.4167 10.7077 10.252 11.0007 9.95902C11.2937 9.666 11.4583 9.26857 11.4583 8.85417C11.4583 8.43977 11.2937 8.04234 11.0007 7.74931C10.7077 7.45629 10.3102 7.29167 9.89584 7.29167ZM15.1042 14.5833C14.6898 14.5833 14.2923 14.748 13.9993 15.041C13.7063 15.334 13.5417 15.7314 13.5417 16.1458C13.5417 16.5602 13.7063 16.9577 13.9993 17.2507C14.2923 17.5437 14.6898 17.7083 15.1042 17.7083C15.5186 17.7083 15.916 17.5437 16.209 17.2507C16.5021 16.9577 16.6667 16.5602 16.6667 16.1458C16.6667 15.7314 16.5021 15.334 16.209 15.041C15.916 14.748 15.5186 14.5833 15.1042 14.5833ZM8.76043 17.7083L17.7083 8.76042L16.2396 7.29167L7.29168 16.2396L8.76043 17.7083Z" fill="white"/>
</g>
</svg>
