<svg width="25" height="25" viewBox="0 0 25 25" fill="none" xmlns="http://www.w3.org/2000/svg">
<g id="icons8:support">
<path id="Vector" d="M16.4062 2.34376C12.9453 2.34376 10.1562 5.13282 10.1562 8.59376C10.1562 8.77735 10.1852 9.02579 10.2055 9.25313L3.51562 15.9422C3.1502 16.3052 2.86019 16.737 2.6623 17.2126C2.4644 17.6882 2.36252 18.1982 2.36252 18.7133C2.36252 19.2284 2.4644 19.7384 2.6623 20.214C2.86019 20.6896 3.1502 21.1213 3.51562 21.4844C3.87867 21.8498 4.31042 22.1398 4.786 22.3377C5.26158 22.5356 5.7716 22.6375 6.28671 22.6375C6.80182 22.6375 7.31185 22.5356 7.78743 22.3377C8.26301 22.1398 8.69475 21.8498 9.05781 21.4844L15.7469 14.7945C15.9734 14.8149 16.2234 14.8438 16.4062 14.8438C19.8672 14.8438 22.6562 12.0547 22.6562 8.59376C22.6604 7.58672 22.4082 6.5952 21.9234 5.71251L21.4352 4.80938L20.7031 5.5422L17.3336 8.88595L16.1133 7.66563L19.457 4.29688L20.1914 3.56407L19.2875 3.07579C18.4045 2.59198 17.4131 2.34012 16.4062 2.34376ZM16.4062 3.90626C16.7859 3.90626 17.0687 4.07032 17.4062 4.15079L14.4531 7.10392L13.8906 7.66641L14.4531 8.20313L16.7969 10.5469L17.3344 11.1094L17.8953 10.5469L20.85 7.59376C20.9305 7.93126 21.0937 8.21407 21.0937 8.59376C21.0937 11.2266 19.0391 13.2813 16.4062 13.2813C16.0937 13.2813 15.8437 13.2813 15.6484 13.232L15.2344 13.1102L14.9172 13.4281L7.95859 20.3867C6.99765 21.3477 5.57578 21.3477 4.61484 20.3867L4.58984 20.3617C3.65234 19.4008 3.66015 17.9945 4.61328 17.0414L11.5719 10.0836L11.8898 9.76641L11.7664 9.35235C11.7195 9.15704 11.718 8.90704 11.718 8.59454C11.718 5.96173 13.7727 3.90704 16.4055 3.90704L16.4062 3.90626Z" fill="white"/>
</g>
</svg>
