<svg width="25" height="25" viewBox="0 0 25 25" fill="none" xmlns="http://www.w3.org/2000/svg">
<g id="ri:wallet-fill">
<path id="Vector" d="M2.08853 9.375H21.8802C22.1565 9.375 22.4214 9.48475 22.6168 9.6801C22.8121 9.87545 22.9219 10.1404 22.9219 10.4167V20.8333C22.9219 21.1096 22.8121 21.3746 22.6168 21.5699C22.4214 21.7653 22.1565 21.875 21.8802 21.875H3.1302C2.85393 21.875 2.58898 21.7653 2.39363 21.5699C2.19828 21.3746 2.08853 21.1096 2.08853 20.8333V9.375ZM3.1302 3.125H18.7552V7.29167H2.08853V4.16667C2.08853 3.8904 2.19828 3.62545 2.39363 3.4301C2.58898 3.23475 2.85393 3.125 3.1302 3.125ZM15.6302 14.5833V16.6667H18.7552V14.5833H15.6302Z" fill="white"/>
</g>
</svg>
